HIERARCHY
ROOT Hips
{
	OFFSET 0.00000 0.00000 0.00000
	CHANNELS 6 Xposition Yposition Zposition Zrotation Yrotation Xrotation 
	JOINT RightUpLegDummy
	{
		OFFSET 0 0 0
		CHANNELS 3 Zrotation Yrotation Xrotation
		JOINT RightUpLeg
		{
			OFFSET -3.52197 -3.41223 0.04002
			CHANNELS 3 Zrotation Yrotation Xrotation
			JOINT RightLeg
			{
				OFFSET 0.00006 -17.42390 1.60435
				CHANNELS 3 Zrotation Yrotation Xrotation
				JOINT RightFoot
				{
					OFFSET 0.06153 -16.50078 -1.63901
					CHANNELS 3 Zrotation Yrotation Xrotation
					JOINT RightToes
					{
						OFFSET 0.00298 -1.73825 3.34613
						CHANNELS 3 Zrotation Yrotation Xrotation
						End Site
						{
							OFFSET 0.00480 -0.05416 3.85043
						}
					}
				}
			}
		}
	}
	JOINT SpineDummy
	{
		OFFSET 0 0 0
		CHANNELS 3 Zrotation Yrotation Xrotation
		JOINT Spine
		{
			OFFSET 0.00000 4.68130 0.00000
			CHANNELS 3 Zrotation Yrotation Xrotation
			JOINT Spine1
			{
				OFFSET -0.00000 10.10138 0.05002
				CHANNELS 3 Zrotation Yrotation Xrotation
				JOINT HEadDummy
				{
					OFFSET 0 0 0
					CHANNELS 3 Zrotation Yrotation Xrotation
					JOINT Head
					{
						OFFSET -0.00000 3.43865 0.00438
						CHANNELS 3 Zrotation Yrotation Xrotation
						End Site
						{
							OFFSET -0.11417 5.02924 0.98962
						}
					}
				}
				JOINT LeftShoulder1Dummy
				{
					OFFSET 0 0 0
					CHANNELS 3 Zrotation Yrotation Xrotation
					JOINT LeftShoulder1
					{
						OFFSET 3.53937 -0.14262 -0.08662
						CHANNELS 3 Zrotation Yrotation Xrotation
						JOINT LeftArm
						{
							OFFSET 4.04833 -0.00133 0.12681
							CHANNELS 3 Zrotation Yrotation Xrotation
							JOINT LeftForeArm
							{
								OFFSET 10.33880 -0.01036 -0.55515
								CHANNELS 3 Zrotation Yrotation Xrotation
								JOINT LeftHand
								{
									OFFSET 8.69677 0.07543 0.40060
									CHANNELS 3 Zrotation Yrotation Xrotation
									End Site
									{
										OFFSET 5.28377 -0.21905 0.59205
									}
								}
							}
						}
					}
				}
				JOINT RightShoulderDummy
				{
					OFFSET 0 0 0
					CHANNELS 3 Zrotation Yrotation Xrotation
					JOINT RightShoulder
					{
						OFFSET -3.53937 -0.14262 -0.08660
						CHANNELS 3 Zrotation Yrotation Xrotation
						JOINT RightArm
						{
							OFFSET -4.04833 -0.00133 0.12683
							CHANNELS 3 Zrotation Yrotation Xrotation
							JOINT RightForeArm
							{
								OFFSET -10.37987 -0.01039 -0.55511
								CHANNELS 3 Zrotation Yrotation Xrotation
								JOINT RightHand
								{
									OFFSET -8.67398 0.07538 0.40058
									CHANNELS 3 Zrotation Yrotation Xrotation
									End Site
									{
										OFFSET -5.24810 -0.21916 0.59204
									}
								}
							}
						}
					}
				}
			}
		}
	}
	JOINT LeftUpLegDummy
	{
		OFFSET 0 0 0
		CHANNELS 3 Zrotation Yrotation Xrotation
		JOINT LeftUpLeg
		{
			OFFSET 3.52197 -3.41223 0.04002
			CHANNELS 3 Zrotation Yrotation Xrotation
			JOINT LeftLeg
			{
				OFFSET -0.00012 -17.42399 1.60337
				CHANNELS 3 Zrotation Yrotation Xrotation
				JOINT LeftFoot
				{
					OFFSET -0.09972 -16.50070 -1.63802
					CHANNELS 3 Zrotation Yrotation Xrotation
					JOINT LeftToes
					{
						OFFSET -0.01575 -1.73823 3.34611
						CHANNELS 3 Zrotation Yrotation Xrotation
						End Site
						{
							OFFSET 0.03150 -0.01868 3.85031
						}
					}
				}
			}
		}
	}
}
MOTION
Frames: 11
Frame Time: 0.033333
6.5648 38.5702 40.6461 177.7100 -17.3370 174.4080 0.0000 0.0000 0.0000 -7.9531 0.1954 6.0463 5.7815 5.9970 39.7341 8.0755 -0.7525 -0.8253 0.0000 -0.0000 -0.0000 0.0000 0.0000 0.0000 -4.9717 -0.9567 8.3131 4.9175 -1.8301 -1.3439 -0.0000 0.0000 -0.0000 6.1990 -4.3275 -12.3555 -0.0000 0.0000 -0.0000 -33.9059 -2.8061 2.5197 -44.0527 -15.0732 -20.7002 -8.4150 5.0308 52.0898 13.8157 -2.8601 -0.9590 -0.0000 0.0000 -0.0000 34.3703 5.0783 3.4658 36.8750 -4.2065 -22.5331 9.0328 -4.6622 22.7776 -12.3075 -0.0173 -0.5683 0.0000 0.0000 0.0000 -0.3506 2.1190 -12.8988 -1.9386 2.3105 16.4474 -4.7072 0.4565 -0.3810 0.0000 0.0000 -0.0000
5.8247 38.4409 40.1078 177.5530 -16.7739 173.7080 0.0000 0.0000 0.0000 -8.5619 1.2315 2.1156 4.4063 3.5017 47.7497 9.9855 -1.5780 6.9434 0.0000 -0.0000 -0.0000 0.0000 0.0000 0.0000 -4.7667 -0.7416 9.7903 4.3866 -1.5456 -1.8388 -0.0000 0.0000 -0.0000 5.9675 -4.5658 -12.7646 -0.0000 0.0000 -0.0000 -33.9519 -2.7861 2.5147 -43.4920 -15.4555 -19.4092 -9.2913 5.0532 51.0594 13.6185 -3.1762 -0.9799 -0.0000 0.0000 -0.0000 34.3894 5.1004 3.4764 37.2806 -4.3723 -22.3666 9.1754 -3.8927 21.2553 -11.7994 0.1369 -0.5593 0.0000 0.0000 0.0000 -1.1180 2.2265 -12.2492 -2.2005 2.6039 19.3260 -2.8989 0.2290 -2.9794 0.0000 0.0000 -0.0000
5.1274 38.3532 39.5507 177.5850 -16.5011 172.9320 0.0000 0.0000 0.0000 -8.3710 2.4630 -1.6329 1.5782 1.0874 54.4455 10.3510 -1.9770 10.7114 0.0000 -0.0000 -0.0000 0.0000 0.0000 0.0000 -4.7607 -0.7455 11.0729 4.2471 -1.5770 -2.0269 -0.0000 0.0000 -0.0000 5.6371 -4.4366 -13.2722 -0.0000 0.0000 -0.0000 -34.2767 -2.7597 2.5248 -42.5193 -15.7973 -17.9411 -10.3426 5.0857 49.5876 13.8982 -3.5715 -1.0454 -0.0000 0.0000 -0.0000 34.5342 5.1353 3.5032 37.5952 -3.3772 -21.9840 9.2794 -3.8293 21.5622 -11.7403 0.3963 -0.5809 0.0000 0.0000 0.0000 -1.7824 2.2604 -11.0446 -2.1233 3.0907 21.2023 -1.6270 0.1174 -5.2051 0.0000 0.0000 -0.0000
4.4503 38.3717 38.9243 177.9550 -17.0728 172.3120 0.0000 0.0000 0.0000 -7.4402 2.9923 -4.8879 -1.5816 -0.5915 58.8501 8.5858 -1.5557 9.5316 0.0000 -0.0000 -0.0000 0.0000 0.0000 0.0000 -4.9478 -1.0957 11.7408 4.6696 -2.0585 -1.9560 -0.0000 0.0000 -0.0000 5.3485 -4.3081 -13.3691 -0.0000 0.0000 -0.0000 -34.5482 -2.7721 2.5470 -41.6334 -16.4804 -17.1479 -10.9077 5.1081 48.5974 14.4858 -3.9662 -1.1377 -0.0000 0.0000 -0.0000 34.7012 5.1543 3.5255 38.0965 -2.0385 -21.5271 9.3332 -3.5139 22.5862 -11.8061 0.5945 -0.6028 0.0000 0.0000 0.0000 -2.2704 2.1940 -9.4943 -2.2262 2.7362 21.9960 -0.6072 0.0650 -6.9301 0.0000 0.0000 -0.0000
3.7962 38.4508 38.2452 178.6240 -18.2203 171.9100 0.0000 0.0000 0.0000 -5.9647 3.2521 -7.7441 -4.2990 -1.7431 60.4856 6.3528 -0.9614 6.3022 0.0000 -0.0000 -0.0000 0.0000 0.0000 0.0000 -5.0926 -1.5437 11.8550 5.3639 -2.6716 -1.8217 -0.0000 0.0000 -0.0000 5.2651 -4.6147 -12.9198 -0.0000 0.0000 -0.0000 -34.4958 -2.8134 2.5604 -41.2221 -17.7358 -17.0919 -10.8615 5.1067 48.6585 15.1318 -4.1464 -1.2125 -0.0000 0.0000 -0.0000 34.8300 5.1583 3.5385 39.0044 -1.1771 -20.9699 9.4437 -2.1014 22.5467 -11.6466 0.7900 -0.6127 0.0000 0.0000 0.0000 -2.4913 2.1585 -8.0224 -2.6449 1.5910 22.3492 0.5661 0.0353 -8.3423 0.0000 0.0000 -0.0000
3.1639 38.5278 37.5444 179.3260 -19.4454 171.6420 0.0000 0.0000 0.0000 -4.3627 4.1452 -10.2475 -6.0280 -2.6228 59.5623 5.1418 -0.6696 3.8408 0.0000 -0.0000 -0.0000 0.0000 0.0000 0.0000 -5.1392 -1.8722 11.7433 5.9903 -3.1429 -1.7754 -0.0000 0.0000 -0.0000 5.3868 -5.3243 -12.1429 -0.0000 0.0000 -0.0000 -34.1641 -2.8268 2.5445 -41.2714 -19.2641 -17.2968 -10.5316 5.0966 49.1433 15.4476 -3.9060 -1.2087 -0.0000 0.0000 -0.0000 34.8843 5.1601 3.5440 40.2538 -0.8205 -20.0828 9.7286 0.2393 21.1075 -11.5984 1.0681 -0.6360 0.0000 0.0000 0.0000 -2.5240 2.2566 -6.5993 -3.1737 0.4284 22.5447 1.4728 0.0360 -9.6656 0.0000 0.0000 -0.0000
2.5341 38.5945 36.8431 179.9080 -20.6758 171.4440 0.0000 0.0000 0.0000 -2.9819 5.7209 -12.3028 -6.7852 -3.4288 56.4599 4.4418 -0.5145 2.0533 0.0000 -0.0000 -0.0000 0.0000 0.0000 0.0000 -5.0987 -2.1513 11.6165 6.4133 -3.5312 -1.8061 -0.0000 0.0000 -0.0000 5.5698 -6.0524 -11.3792 -0.0000 0.0000 -0.0000 -33.8867 -2.7987 2.5155 -41.3969 -20.5564 -17.2814 -10.3758 5.1048 48.9262 15.3339 -3.5157 -1.1505 -0.0000 0.0000 -0.0000 34.8929 5.1674 3.5496 41.5329 -0.4468 -18.7630 10.1689 2.7129 19.3783 -11.8347 1.3735 -0.6780 0.0000 0.0000 0.0000 -2.5234 2.4254 -5.0173 -3.7521 -0.6104 22.3919 1.8116 0.0580 -10.8966 0.0000 0.0000 -0.0000
1.8926 38.6582 36.1504 -179.5280 -22.0593 171.3150 0.0000 0.0000 0.0000 -1.9065 7.4311 -13.8091 -7.0729 -4.4542 51.2297 3.9465 -0.3988 0.2413 0.0000 -0.0000 -0.0000 0.0000 0.0000 0.0000 -4.8671 -2.5018 11.4500 6.6319 -3.9567 -1.7897 -0.0000 0.0000 -0.0000 5.7578 -6.5706 -10.9634 -0.0000 0.0000 -0.0000 -33.8833 -2.7731 2.5051 -41.3425 -21.4224 -16.8192 -10.6078 5.1314 47.9165 15.2802 -3.4591 -1.1393 -0.0000 0.0000 -0.0000 34.9213 5.1739 3.5541 42.5716 0.2374 -17.0558 10.6235 4.8745 18.2770 -11.7157 1.6250 -0.6945 0.0000 0.0000 0.0000 -2.5159 2.5592 -3.3666 -4.4286 -1.9242 21.9469 2.1095 0.0839 -11.9760 0.0000 0.0000 -0.0000
1.2429 38.7273 35.4561 -178.8950 -23.4974 171.2510 0.0000 0.0000 0.0000 -1.0820 9.2299 -14.6788 -7.0456 -5.8412 43.8802 3.9849 -0.3770 -0.6136 0.0000 -0.0000 -0.0000 0.0000 0.0000 0.0000 -4.4095 -2.8479 11.1318 6.6830 -4.3435 -1.6026 -0.0000 0.0000 -0.0000 6.1076 -6.9650 -11.1348 -0.0000 0.0000 -0.0000 -33.9968 -2.7697 2.5063 -41.3268 -21.9585 -15.9681 -11.0696 5.1548 46.8905 15.5847 -3.7640 -1.2018 -0.0000 0.0000 -0.0000 34.9571 5.1717 3.5552 43.3585 1.1535 -14.6713 10.8593 6.7784 17.7981 -10.9042 1.8237 -0.6623 0.0000 0.0000 0.0000 -2.4606 2.6387 -1.7000 -5.0365 -3.4132 21.2585 2.8573 0.1150 -12.8538 0.0000 0.0000 -0.0000
0.5978 38.8135 34.7557 -178.3300 -24.7467 171.3070 0.0000 0.0000 0.0000 -0.5477 11.5217 -14.9997 -6.3855 -7.2396 34.9470 3.8955 -0.3891 0.0975 0.0000 -0.0000 -0.0000 0.0000 0.0000 0.0000 -3.9684 -3.0489 10.6236 6.6754 -4.5738 -1.2199 -0.0000 0.0000 -0.0000 6.8171 -7.3764 -11.9226 -0.0000 0.0000 -0.0000 -33.9991 -2.7708 2.5116 -41.6470 -22.1473 -14.9072 -11.5702 5.1779 45.8264 15.8296 -4.0058 -1.2526 -0.0000 0.0000 -0.0000 34.9012 5.1520 3.5422 43.9628 2.2189 -11.7999 10.7730 8.2900 18.3211 -10.2634 2.0591 -0.6413 0.0000 0.0000 0.0000 -2.4512 2.6536 0.1170 -5.3092 -4.5594 20.0457 3.6975 0.1471 -13.4108 0.0000 0.0000 -0.0000
-0.0401 38.9155 34.0662 -178.0250 -25.7465 171.6490 0.0000 0.0000 0.0000 -0.3756 13.8735 -15.2353 -4.9959 -8.0039 25.4456 2.9124 -0.3195 1.4180 0.0000 -0.0000 -0.0000 0.0000 0.0000 0.0000 -3.7850 -3.1078 9.9160 6.7120 -4.6708 -0.7264 -0.0000 0.0000 -0.0000 7.8695 -7.8082 -13.1433 -0.0000 0.0000 -0.0000 -33.9800 -2.7890 2.5176 -42.1734 -21.8229 -13.7368 -12.1485 5.2200 43.9637 15.7320 -3.9749 -1.2407 -0.0000 0.0000 -0.0000 34.7221 5.1191 3.5131 44.2914 3.3925 -9.4965 10.6264 9.0694 20.1819 -10.6446 2.3282 -0.6888 0.0000 0.0000 0.0000 -2.6517 2.5694 2.0284 -5.3020 -5.3223 18.1678 4.1359 0.1620 -13.5726 0.0000 0.0000 -0.0000
